inDegrees=no
num_controls=7
num_derivatives=13
num_iterations=136
num_multipliers=7
num_parameters=0
num_slacks=7
num_states=26
objective=6.006145
objective_accelerations=0.389269
objective_balance=0.018401
objective_effort=0.423073
objective_height=5.064304
objective_ligament=0.111098
solver_duration=1169.533239
status=Solve_Succeeded
success=true
DataType=double
version=3
OpenSimVersion=4.4-2022-07-23-0e9fedc
endheader
time	/jointset/ground_pelvis/pelvis_tilt/value	/jointset/ground_pelvis/pelvis_tx/value	/jointset/ground_pelvis/pelvis_ty/value	/jointset/hip_r/hip_flexion_r/value	/jointset/hip_r/hip_adduction_r/value	/jointset/hip_r/hip_rotation_r/value	/jointset/back/lumbar_extension/value	/jointset/patellofemoral_r/patellar_flexion_r/value	/jointset/knee_r/knee_flexion_r/value	/jointset/knee_r/knee_adduction_r/value	/jointset/knee_r/knee_rotation_r/value	/jointset/ankle_r/ankle_angle_r/value	/jointset/subtalar_r/subtalar_angle_r/value	/jointset/ground_pelvis/pelvis_tilt/speed	/jointset/ground_pelvis/pelvis_tx/speed	/jointset/ground_pelvis/pelvis_ty/speed	/jointset/hip_r/hip_flexion_r/speed	/jointset/hip_r/hip_adduction_r/speed	/jointset/hip_r/hip_rotation_r/speed	/jointset/back/lumbar_extension/speed	/jointset/patellofemoral_r/patellar_flexion_r/speed	/jointset/knee_r/knee_flexion_r/speed	/jointset/knee_r/knee_adduction_r/speed	/jointset/knee_r/knee_rotation_r/speed	/jointset/ankle_r/ankle_angle_r/speed	/jointset/subtalar_r/subtalar_angle_r/speed	/forceset/tau_hip_flexion_r	/forceset/tau_hip_adduction_r	/forceset/tau_hip_rotation_r	/forceset/tau_knee_flexion_r	/forceset/tau_ankle_angle_r	/forceset/tau_subtalar_angle_r	/forceset/tau_lumbar_extension	lambda_cid13_p0	lambda_cid14_p0	lambda_cid14_p1	lambda_cid14_p2	lambda_cid14_p3	lambda_cid14_p4	lambda_cid14_p5	/jointset/ground_pelvis/pelvis_tilt/accel	/jointset/ground_pelvis/pelvis_tx/accel	/jointset/ground_pelvis/pelvis_ty/accel	/jointset/hip_r/hip_flexion_r/accel	/jointset/hip_r/hip_adduction_r/accel	/jointset/hip_r/hip_rotation_r/accel	/jointset/back/lumbar_extension/accel	/jointset/patellofemoral_r/patellar_flexion_r/accel	/jointset/knee_r/knee_flexion_r/accel	/jointset/knee_r/knee_adduction_r/accel	/jointset/knee_r/knee_rotation_r/accel	/jointset/ankle_r/ankle_angle_r/accel	/jointset/subtalar_r/subtalar_angle_r/accel	gamma_cid13_p0	gamma_cid14_p0	gamma_cid14_p1	gamma_cid14_p2	gamma_cid14_p3	gamma_cid14_p4	gamma_cid14_p5
1	-0.2022026891531113	0.02216391560089891	0.7544964504092666	1.119471965199973	-0.2325895368419723	-0.08006626743946645	-0.4362816383203846	1.119992277990067	1.119992277990078	-0.03206433715398569	0.1745326235334482	0.3946926879846083	0.09453196054110911	-0.0005043674125615333	0.004434641793495168	0.01386263933296577	-0.03958056607911024	0.002044100414984854	-0.0106794711729204	0.005137569970946532	-0.05060220827288475	-0.0506022082728845	0.0009333960089964533	-6.403254139651312e-06	-0.01191308518760047	-0.0008241065220217947	-0.2114453852060162	0.01359046187583112	0.01370903488597574	-0.4359341741633664	-0.01394399845457575	0.008233763845700326	0.2522734105923599	-4.784918202723486	-51.6827557573021	-4.346967987205745	-0.1336081602566794	19.59728562799556	-771.6905305183146	63.75393168889861	0.9588468831541856	0.02858129361172471	1.241455532174076	-3.989967311116463	0.1174385540845107	-0.6051746818438051	0.3193126966849476	-4.400873587455463	-4.400873587455703	0.4871725816500909	0.003203929984501431	-1.553279920669643	-0.3631857250372427	8.022331875950908e-10	-2.259646427602068e-09	1.248743178232564e-09	8.619313684523338e-09	6.491273077613006e-09	-2.632997232294447e-09	-9.921263985362498e-10
1.01	-0.2021608116369217	0.02220984224901161	0.7546969709234296	1.11887776052247	-0.2325633104378642	-0.08020280313402145	-0.4362123464235411	1.11926653851266	1.119266538512512	-0.03203012924049751	0.1745326080205007	0.394496113025353	0.0945054916940558	0.008834503453853311	0.004767511607533351	0.02623597740681425	-0.07923216133218698	0.00320000360891468	-0.01662533667725197	0.008851366048883771	-0.09454467196068179	-0.09454467196068073	0.005912341690438776	2.179664897470646e-06	-0.02738319239970641	-0.004464193002613768	-0.211907961247004	0.0135919620887078	0.01371095261832543	-0.4355586699229622	-0.01397330845270938	0.008249326349252104	0.2528120317802695	-4.820687959690474	-51.69207817347347	-4.33319633333512	-0.145678592004168	19.38375412385131	-771.8897500723024	63.74834108537376	0.914602799229725	0.03816441778203376	1.234448940467131	-3.948523888065138	0.1144925506817104	-0.5889416195512357	0.4169965609365237	-4.39078080308429	-4.390780803083975	0.5038794938304989	-0.0004794611948609936	-1.541069555851909	-0.3635968972751076	1.645546083346812e-09	-1.024984521109199e-09	5.335631782406373e-09	1.529736327003706e-08	5.142226384247358e-09	-5.42479563117513e-09	3.669076149809178e-09
1.02	-0.2020269062898997	0.0222596025137612	0.7550210600174267	1.117887886241334	-0.2325255597320882	-0.08039872731058215	-0.4361019998663921	1.118101404789647	1.118101404789324	-0.03194600708369925	0.1745326453499295	0.3941453983071019	0.09444278662465568	0.01790119875405499	0.005201365120874066	0.03857635529979253	-0.1187144868117246	0.004348960748216809	-0.02255716757451573	0.01334850203035872	-0.1384810573941772	-0.1384810573941734	0.01091624466944503	4.165221608714008e-06	-0.0427410369866468	-0.008071350991403025	-0.2123705372878009	0.01359346230160927	0.01371287035051952	-0.4351831656825446	-0.01400261845084974	0.008264888852844481	0.2533506529683553	-4.878439909960312	-51.71218626121826	-4.316907685009083	-0.1631823929141138	19.19539635022767	-772.2547960553003	63.76591248031426	0.9044117699115537	0.04877803347222728	1.234863496000035	-3.956113356408641	0.1160493431589784	-0.6023677604301958	0.4759806773925057	-4.399657936595131	-4.399657936594997	0.492164041162907	0.001884457519292153	-1.530827395636539	-0.3566000266766937	2.283077489248391e-09	-5.218121458114206e-10	8.08952638838819e-09	2.187335620474597e-08	5.20508124527857e-09	-7.254601685400661e-09	5.665254351055263e-09
1.03	-0.2018035238007129	0.02231424981678758	0.75546834943107	1.116503895364092	-0.2324763738279812	-0.08065387800278284	-0.4359428173900814	1.116497055073776	1.116497055073525	-0.03181169684549848	0.1745326808300675	0.3936417541737212	0.09434418390064386	0.02674498104377175	0.005749391127944832	0.05087188695239008	-0.1580671164606341	0.005485183014321413	-0.02846746951852619	0.01861630151835484	-0.1823757676833474	-0.1823757676833445	0.01595302068855485	2.244558153829661e-06	-0.05796021724919116	-0.01164265667765975	-0.2127202284170676	0.01351481556944537	0.01371835160325729	-0.434497527642452	-0.01391235597543326	0.008282631101214679	0.2538049567873144	-4.958516185945458	-51.66991485487331	-4.28258058782614	-0.1906092047983008	18.92599023297897	-772.2664845740644	63.77701968941047	0.8698147798566943	0.06101028779492802	1.22545010246799	-3.922351146042371	0.111958396204627	-0.5845339693984893	0.5714258275443912	-4.382410448152322	-4.382410448152513	0.5105183708658109	-0.001327223394423903	-1.513328255422406	-0.356410086373329	2.918509084029049e-09	-2.610394940339305e-11	1.082981901479661e-08	2.844830774505892e-08	5.282343265028125e-09	-9.074591491211336e-09	7.634238426310523e-09
